<svg width="192" height="192" viewBox="0 0 192 192" fill="none" xmlns="http://www.w3.org/2000/svg">
<g clip-path="url(#clip0_31_18)">
<rect width="192" height="192" rx="1" fill="#11151B" style="fill:#11151B;fill:color(display-p3 0.0667 0.0824 0.1059);fill-opacity:1;"/>
<path d="M53.25 145.875H49.6875C47.7978 145.875 45.9856 145.124 44.6494 143.788C43.3132 142.452 42.5625 140.64 42.5625 138.75V63.9375C42.5625 62.0478 43.3132 60.2356 44.6494 58.8994C45.9856 57.5632 47.7978 56.8125 49.6875 56.8125H53.25C55.1397 56.8125 56.9519 57.5632 58.2881 58.8994C59.6243 60.2356 60.375 62.0478 60.375 63.9375V138.75C60.375 140.64 59.6243 142.452 58.2881 143.788C56.9519 145.124 55.1397 145.875 53.25 145.875ZM92.4375 78.1875C92.4375 76.2978 91.6868 74.4856 90.3506 73.1494C89.0144 71.8132 87.2022 71.0625 85.3125 71.0625H71.0625C69.1728 71.0625 67.3606 71.8132 66.0244 73.1494C64.6882 74.4856 63.9375 76.2978 63.9375 78.1875V84.4219C63.9375 84.6581 64.0313 84.8846 64.1984 85.0516C64.3654 85.2187 64.5919 85.3125 64.8281 85.3125H91.5469C91.7831 85.3125 92.0096 85.2187 92.1766 85.0516C92.3437 84.8846 92.4375 84.6581 92.4375 84.4219V78.1875ZM63.9375 138.75C63.9375 140.64 64.6882 142.452 66.0244 143.788C67.3606 145.124 69.1728 145.875 71.0625 145.875H85.3125C87.2022 145.875 89.0144 145.124 90.3506 143.788C91.6868 142.452 92.4375 140.64 92.4375 138.75V132.07C92.4375 131.952 92.3906 131.839 92.3071 131.755C92.2236 131.672 92.1103 131.625 91.9922 131.625H64.3828C64.2647 131.625 64.1514 131.672 64.0679 131.755C63.9844 131.839 63.9375 131.952 63.9375 132.07V138.75Z" fill="#857AFF" style="fill:#857AFF;fill:color(display-p3 0.5216 0.4784 1.0000);fill-opacity:1;"/>
<path d="M91.9922 92.4375H64.3828C64.1369 92.4375 63.9375 92.6369 63.9375 92.8828V124.055C63.9375 124.301 64.1369 124.5 64.3828 124.5H91.9922C92.2381 124.5 92.4375 124.301 92.4375 124.055V92.8828C92.4375 92.6369 92.2381 92.4375 91.9922 92.4375Z" fill="#857AFF" style="fill:#857AFF;fill:color(display-p3 0.5216 0.4784 1.0000);fill-opacity:1;"/>
<path d="M110.25 145.875H103.125C101.235 145.875 99.4231 145.124 98.0869 143.788C96.7507 142.452 96 140.64 96 138.75V53.25C96 51.3603 96.7507 49.5481 98.0869 48.2119C99.4231 46.8757 101.235 46.125 103.125 46.125H110.25C112.14 46.125 113.952 46.8757 115.288 48.2119C116.624 49.5481 117.375 51.3603 117.375 53.25V138.75C117.375 140.64 116.624 142.452 115.288 143.788C113.952 145.124 112.14 145.875 110.25 145.875ZM149.413 138.182L142.237 62.4791C141.907 58.9945 138.465 56.4674 134.548 56.8437L127.457 57.5116C123.54 57.8835 120.632 61.0096 120.962 64.4941L128.138 140.197C128.468 143.682 131.91 146.209 135.827 145.833L142.918 145.165C146.835 144.793 149.743 141.667 149.413 138.182Z" fill="#857AFF" style="fill:#857AFF;fill:color(display-p3 0.5216 0.4784 1.0000);fill-opacity:1;"/>
</g>
<defs>
<clipPath id="clip0_31_18">
<rect width="192" height="192" rx="39" fill="white" style="fill:white;fill-opacity:1;"/>
</clipPath>
</defs>
</svg>
